<?xml version="1.0" encoding="utf-8"?>
<!-- Generator: Adobe Illustrator 24.3.0, SVG Export Plug-In . SVG Version: 6.00 Build 0)  -->
<svg version="1.1" id="Layer_1" xmlns="http://www.w3.org/2000/svg" xmlns:xlink="http://www.w3.org/1999/xlink" x="0px" y="0px"
	 viewBox="0 0 2334.19 2834.88" style="enable-background:new 0 0 2334.19 2834.88;" xml:space="preserve">
<style type="text/css">
	.st0{fill:#FFFFFF;}
	.st1{opacity:0.2;}
	.st2{fill:#3F1818;}
	.st3{fill:#FFC894;}
	.st4{fill:#E80000;}
	.st5{fill:#603C3C;}
	.st6{fill:none;stroke:#3F1818;stroke-width:38.6473;stroke-linecap:round;stroke-linejoin:round;stroke-miterlimit:10;}
	.st7{fill:#E68930;}
	.st8{fill:#FCCC00;}
	.st9{opacity:0.6;}
	.st10{fill:#F0202D;}
	.st11{fill:#FF4881;}
</style>
<g>
	<g>
		<g>
			<g>
				<ellipse class="st0" cx="700.35" cy="2296.93" rx="274.95" ry="277.2"/>
			</g>
		</g>
		<g class="st1">
			<g>
				<path class="st2" d="M974.71,2296.93c0,153.07-123.09,277.2-274.95,277.2S424.82,2450,424.82,2296.93
					c0-19.88,2.07-39.26,6.04-57.96c26.41,125.26,136.8,219.19,268.91,219.19s242.49-93.93,268.91-219.19
					C972.64,2257.67,974.71,2277.05,974.71,2296.93z"/>
			</g>
		</g>
		<g>
			<g>
				<path class="st2" d="M700.35,2593.45c-162.26,0-294.27-133.02-294.27-296.52s132.01-296.52,294.27-296.52
					s294.27,133.02,294.27,296.52S862.61,2593.45,700.35,2593.45z M700.35,2039.06c-140.95,0-255.62,115.68-255.62,257.88
					s114.67,257.88,255.62,257.88s255.62-115.68,255.62-257.88S841.3,2039.06,700.35,2039.06z"/>
			</g>
		</g>
		<g>
			<g>
				<ellipse class="st3" cx="716.67" cy="2209.35" rx="317.86" ry="173.53"/>
			</g>
		</g>
		<g class="st1">
			<g>
				<path class="st2" d="M1025.46,2206.02c0,95.83-142.34,173.53-317.86,173.53c-175.56,0-317.86-77.71-317.86-173.53
					c0-11.09,1.89-21.95,5.54-32.45c10.28,90.78,148.34,162.67,317.22,162.67c155.23,0,284.5-60.76,312.31-141.12
					C1025.24,2198.72,1025.46,2202.37,1025.46,2206.02z"/>
			</g>
		</g>
		<g>
			<g>
				<path class="st2" d="M716.67,2402.21c-189.07,0-337.18-84.71-337.18-192.86c0-108.14,148.11-192.85,337.18-192.85
					s337.18,84.71,337.18,192.85C1053.84,2317.5,905.74,2402.21,716.67,2402.21z M716.67,2055.15
					c-161.82,0-298.54,70.62-298.54,154.21s136.71,154.21,298.54,154.21s298.54-70.62,298.54-154.21S878.49,2055.15,716.67,2055.15z
					"/>
			</g>
		</g>
		<g>
			<g>
				<path class="st3" d="M2148.24,1134.34c-0.86-2.16-1.76-4.33-2.66-6.45c-51.7-121.25-143.56-198.05-170.29-191.2
					c-1.13,0.27-2.12,0.72-3.02,1.31c-37.19,24.7,36.19,109.08,56.07,145.99c-19.07-22.09-37.19-40.75-53.95-56.25
					c0,0-0.09-0.04-0.09-0.09c-47.6-43.95-84.15-61.93-100.83-57.74c-21.59,5.45-9.96,48.05,54.04,119.53
					c9.42,10.5,19.97,21.68,31.73,33.44c-37.14-27.99-116.51-101.14-154.87-91.99c-1.62,0.32-3.16,0.86-4.6,1.53
					c-43.86,20.37,51.43,115.84,87.58,159.96c0.41,0.5,0.81,0.99,1.22,1.49c-61.8,12.26-97,57.74-105.97,108.09
					c-1.76,9.74-2.48,19.65-2.25,29.57c0.14,6.4,0.72,12.8,1.67,19.11c8.02,52.65,44.49,100.74,109.08,112.32
					c42.19,6.13,106.73-2.57,122.82,48.05c65.31-36.42,128.28-64.27,194.08-79.46C2214.09,1375.21,2193.13,1242.74,2148.24,1134.34z
					 M1870.59,1380.93c-22.4,0-40.57-21.23-40.57-47.33c0-5.32,0.77-10.46,2.16-15.23c4.01-13.88,13.43-24.88,25.33-29.57
					c4.1-1.62,8.52-2.52,13.07-2.52c14.29,0,26.86,8.61,34.08,21.68c2.84,5.14,4.87,10.91,5.86,17.13c0.41,2.75,0.63,5.63,0.63,8.52
					C1911.15,1359.7,1892.99,1380.93,1870.59,1380.93z"/>
			</g>
		</g>
		<g>
			<g>
				<path class="st2" d="M2013.92,1530.34c-2.41,0-4.82-0.45-7.12-1.36c-5.39-2.14-9.54-6.58-11.3-12.11
					c-8.15-25.66-35.88-29.36-77.25-32.07c-10.52-0.69-20.45-1.34-29.93-2.71c-0.21-0.03-0.42-0.07-0.63-0.1
					c-86.7-15.54-126.13-87.71-126.74-152.34c-0.53-56.56,28.54-119.45,93.7-145.79c-1.11-1.27-2.23-2.56-3.36-3.86
					c-50.44-57.82-88.46-104.75-81.24-138.71c2.48-11.7,10.15-21.06,21.6-26.38c5.92-2.76,12.58-4.16,19.78-4.16
					c13.53,0,28.47,4.88,44.62,13.2c-10.45-20.61-15.07-39.7-9.07-54.19c5.12-12.38,16.99-19.77,31.74-19.77
					c17.6,0,40.67,10.2,67.06,29.03c-3.04-10.66-4.09-20.83-2.25-30.15c2.23-11.28,8.48-20.6,18.06-26.97
					c4.96-3.29,10.8-4.97,17.35-4.97c45.21,0,135.61,88.84,184.42,203.38c46.64,109.45,70.67,250.36,63.86,313.31
					c-0.89,8.18-6.85,14.9-14.87,16.75c-58.23,13.44-118.29,38.07-189.02,77.51C2020.42,1529.51,2017.18,1530.34,2013.92,1530.34z
					 M1894.19,1443.89c7.9,1.13,16.98,1.72,26.59,2.35c33.95,2.22,78.54,5.14,101.5,38.17c61-32.72,114.92-54.71,167.33-68.25
					c1.35-56.94-17.95-177.78-61.81-280.69c-47.1-110.52-124-174.13-146.27-179.51c-0.03,0.13-0.07,0.27-0.1,0.42
					c-3.33,16.85,26.34,60.83,42.29,84.47c8.87,13.15,16.53,24.5,21.64,33.99c4.67,8.68,2.07,19.48-6.04,25.07
					c-8.11,5.59-19.14,4.18-25.58-3.27c-62.45-72.2-110.44-102.83-130.36-107.38c3.39,14.65,22.95,53.39,89.54,119.98
					c7.18,7.18,7.58,18.68,0.92,26.35c-6.66,7.66-18.11,8.86-26.22,2.75c-7.05-5.31-15.18-11.89-24.6-19.5
					c-30.02-24.26-85.9-69.42-111.59-69.42c-1.48,0-2.72,0.2-3.49,0.55c-0.05,0.02-0.09,0.04-0.14,0.06
					c-0.03,2.7,1.29,13.53,19.83,39.91c15.04,21.41,35.09,44.39,52.78,64.67c8.69,9.96,16.9,19.37,23.18,27.12
					c4.26,5.26,5.46,12.37,3.16,18.73c-2.3,6.37-7.77,11.07-14.4,12.39c-69.14,13.74-93.17,71.32-92.74,116.45
					C1800.02,1374.34,1825.06,1431.34,1894.19,1443.89z M1870.59,1400.25c-33.02,0-59.89-29.9-59.89-66.65s26.87-66.65,59.89-66.65
					c33.02,0,59.89,29.9,59.89,66.65S1903.61,1400.25,1870.59,1400.25z M1870.59,1305.6c-11.51,0-21.25,12.82-21.25,28
					s9.73,28,21.25,28s21.25-12.82,21.25-28S1882.1,1305.6,1870.59,1305.6z"/>
			</g>
		</g>
		<g>
			<g>
				<path class="st2" d="M1823.62,1352.91h-41.47c-10.67,0-19.32-8.65-19.32-19.32s8.65-19.32,19.32-19.32h41.47
					c10.67,0,19.32,8.65,19.32,19.32S1834.29,1352.91,1823.62,1352.91z"/>
			</g>
		</g>
		<g>
			<g>
				<path class="st2" d="M1887.35,1351.22c1.66-6.88,4-13.71,7.19-20.77c3.1-7.06,7.3-14.45,13.09-21.35
					c5.73-6.89,12.92-12.89,20.34-17.15c3.69-2.17,7.45-3.93,11.16-5.5l5.53-2.15c1.85-0.71,4.17-1.4,6.22-2.07
					c17.17-4.94,34.47-3.08,49.12,2.3c14.68,5.53,27.41,14.49,36.49,25.99c0.98,1.23,0.76,3.02-0.47,4
					c-0.83,0.65-1.9,0.77-2.81,0.41l-0.07-0.02c-12.78-5.07-25.61-7.8-37.78-7.83c-12.12-0.17-23.36,2.57-31.84,7.62
					c-1.09,0.71-1.99,1.2-3.21,2.02l-3.64,2.49c-2.31,1.7-4.44,3.46-6.43,5.14c-3.89,3.49-6.89,6.88-9.65,10.76
					c-2.77,3.84-5.34,8.47-8.22,13.74c-2.79,5.28-5.72,11.12-9.25,16.94l-0.09,0.14c-5.6,9.23-17.61,12.17-26.84,6.57
					C1888.76,1368,1885.41,1359.26,1887.35,1351.22z"/>
			</g>
		</g>
		<g>
			<g>
				<path class="st2" d="M1933.61,1156.48c7.08-10.55,15.46-20.02,24.38-28.9c8.89-8.94,18.56-17.06,28.65-24.58
					c10.11-7.5,20.73-14.35,31.94-20.12c11.19-5.8,22.83-10.78,35.23-13.93c4.63-1.18,9.33,1.62,10.51,6.25
					c0.82,3.23-0.3,6.51-2.63,8.59l-0.06,0.05c-9.26,8.23-18.86,15.41-28.46,22.53c-9.58,7.14-19.28,13.96-28.97,20.83l-29.16,20.64
					c-9.79,6.88-19.57,13.85-30.01,20.38l-0.05,0.03c-3.92,2.45-9.08,1.26-11.53-2.66
					C1931.66,1162.7,1931.83,1159.14,1933.61,1156.48z"/>
			</g>
		</g>
		<g>
			<g>
				<path class="st0" d="M2314.38,1773.25c-2.3,68.47-13.84,140.18-56.07,194.08c-44.85,57.24-118.59,85.86-191.02,91.9
					c-72.48,5.99-144.96-7.93-216.31-21.77c58.78,158.21,86.99,330.25,76.67,499.95c-1.53,24.93-14.11,47.87-33.99,63.01
					c-247.81,188.86-594.33,263.18-903.63,183.45c-36.73-9.47-59.77-45.88-51.92-82.98c29.84-140.99,38.31-280.31,25.33-416.79
					c-1.71-18.39-3.88-36.78-6.4-55.08c-134.18-83.79-264.31-166.82-394.39-249.89c175.65-136.84,348.69-268.95,521.77-401.06
					c295.72,8.34,604.93,63.15,907.82,142.12c0.27-14.83,0.27-29.07,0-42.77c-0.9-56.03-5.45-103.62-9.96-151.22
					c83.97-58.23,175.02-97.45,269.58-124.63c7.03,18.57,13.52,37.46,19.43,56.7c12.08,39.08,21.86,79.33,29.03,120.39
					C2311.54,1642.4,2316.54,1707.94,2314.38,1773.25z"/>
			</g>
		</g>
		<g>
			<g>
				<path class="st2" d="M1657.15,2753.92c-0.63,0-1.27-0.03-1.92-0.1c-10.62-1.04-18.38-10.5-17.33-21.13
					c52.92-537.46-117.06-957.19-192.6-1112.71c-4.66-9.6-0.66-21.16,8.94-25.83c9.61-4.66,21.16-0.66,25.83,8.94
					c76.97,158.46,250.18,586.12,196.29,1133.38C1675.37,2746.46,1666.97,2753.92,1657.15,2753.92z"/>
			</g>
		</g>
		<g>
			<g>
				<path class="st2" d="M1244.1,2834.88c-88.69,0-175.8-10.86-258.9-32.29c-46.99-12.12-75.99-58.54-66.01-105.69
					c32.66-154.33,39.35-307.79,19.92-456.31c-126.43-79.01-245.27-154.76-386.85-245.18c-5.29-3.38-8.61-9.11-8.9-15.38
					c-0.29-6.27,2.48-12.29,7.43-16.15c177.85-138.56,352.76-272.07,521.92-401.18c3.52-2.68,7.72-4.06,12.27-3.96
					c264.83,7.47,563.51,53.39,888.14,136.53c-0.02-5.95-0.08-11.79-0.2-17.5c-0.88-54.79-5.39-102.38-9.75-148.39l-0.13-1.38
					c-0.66-6.95,2.49-13.72,8.23-17.7c79.87-55.4,169.91-97.04,275.25-127.32c9.68-2.77,19.85,2.32,23.41,11.74
					c21.98,58.13,38.61,118.89,49.41,180.6c11.68,66.35,16.51,133.16,14.34,198.55c-1.93,57.67-10.28,141.68-60.18,205.36
					c-43.77,55.88-118.35,92.05-204.62,99.25c-12.01,0.99-24.54,1.5-37.25,1.5c-51.29,0-101.83-7.97-151.13-17.19
					c53.04,155.23,75.96,319.01,66.4,475.81c-1.85,30.35-16.99,58.49-41.55,77.2C1722.68,2755.03,1481.65,2834.88,1244.1,2834.88z
					 M596.12,1977.56c134.29,85.74,248.94,158.73,371.16,235.05c4.86,3.04,8.12,8.07,8.91,13.75
					c21.51,155.73,15.05,316.73-19.18,478.54c-5.68,26.86,10.94,53.33,37.85,60.27c79.95,20.61,163.81,31.06,249.25,31.06
					c229.26,0,461.75-76.97,637.85-211.17c15.62-11.9,25.23-29.69,26.4-48.82c9.9-162.3-16.21-332.46-75.48-492.07
					c-2.43-6.55-1.14-13.9,3.38-19.23c4.52-5.32,11.53-7.81,18.41-6.47c57.93,11.23,117.83,22.85,176.99,22.85
					c11.65,0,23.1-0.46,34.05-1.36c75.57-6.3,140.23-37.12,177.4-84.56c32.67-41.7,49.18-99.79,51.97-182.82
					c2.08-62.72-2.56-126.84-13.78-190.58c-9.35-53.4-23.23-106.05-41.31-156.77c-89.82,27.38-167.74,63.65-237.38,110.49
					c4.12,43.68,8.12,89.12,8.97,141.38c0.27,13.81,0.27,28.44,0,43.44c-0.11,5.92-2.92,11.47-7.65,15.05
					c-4.72,3.58-10.83,4.8-16.55,3.3c-328.29-85.59-629.93-133.12-896.67-141.3C930.17,1720.1,764.48,1846.6,596.12,1977.56z"/>
			</g>
		</g>
		<g>
			<g>
				<path class="st4" d="M1579.73,1596.56c-49.36,264.9-442.21,262.37-588.84,94.92c-36.01-41.15-57.2-92.22-54.76-151.76
					c226.58,7.12,438.56-30.06,634.72-107.54C1586.49,1495.55,1588.38,1550.18,1579.73,1596.56z"/>
			</g>
		</g>
		<g class="st1">
			<g>
				<path class="st2" d="M1579.73,1606.98c-49.36,251.85-442.21,249.45-588.84,90.25c49.49,30.64,107.09,49.2,165.87,53.82
					c16.59,1.29,33.31,1.46,49.9,0.47c15.23-0.9,34.8-7.97,49.49-6.51c-63.37-6.3-126.11-18.47-187.01-36.34
					c63.64,9.43,129.04,14.7,192.19,2.61c30.92-5.91,60.8-15.86,90.51-25.8c66.21-22.11,133.33-44.65,190.93-82.71
					c-15.69,26.18-38.18,48.64-64.91,64.79C1515.5,1653.86,1550.21,1633.08,1579.73,1606.98z"/>
			</g>
		</g>
		<g>
			<g>
				<path class="st2" d="M1281.62,1827.34c-115.62,0-229.3-43.6-296.67-113.77c-47.22-49.18-70.78-109.58-68.12-174.64
					c0.43-10.59,9.2-18.85,19.92-18.53c219.97,6.92,431.11-28.83,627.02-106.2c5.2-2.05,11.01-1.76,15.96,0.8
					c4.96,2.56,8.56,7.13,9.9,12.55c28.68,116.43,14.31,215.66-41.56,286.97C1491.9,1786.22,1394.78,1827.34,1281.62,1827.34z
					 M955.53,1559.55c2.46,47.42,21.67,90.16,57.29,127.26c60.34,62.85,163.33,101.89,268.79,101.89
					c101.2,0,187.23-35.72,236.04-98.01c45.62-58.22,58.79-136.33,39.28-232.41c-178.38,67.45-368.73,101.63-566.16,101.63
					C979.12,1559.9,967.33,1559.78,955.53,1559.55z"/>
			</g>
		</g>
		<g>
			<g>
				<path class="st4" d="M1398.45,2009.43c-16.68,46.56-40.16,90.96-69.73,131.07c-33.22-72.57-43.45-154.56-29.93-232.67
					c4.37-25.29,11.27-50.12,20.42-74.1c19.07-50.03,48.05-96.32,85.01-135.04C1438.92,1798.13,1434.59,1908.83,1398.45,2009.43z"/>
			</g>
		</g>
		<g class="st1">
			<g>
				<path class="st2" d="M1398.45,2009.43c-1.22-50.03-4.51-100.02-15.23-148.79c-11.99,47.01-28.04,92.94-44.08,138.73
					c1.58-48.81,3.29-98.3,17.71-145c-12.8-6.27-25.69-12.76-37.64-20.64c19.07-50.03,48.05-96.32,85.01-135.04
					C1438.92,1798.13,1434.59,1908.83,1398.45,2009.43z"/>
			</g>
		</g>
		<g>
			<g>
				<path class="st4" d="M1699.04,2012.36c-74.82-14.33-144.73-53.19-196.38-109.26c-36.33-39.39-63.42-87.08-79.15-138.24
					c-6.72-21.59-11.36-43.86-13.79-66.35c10.95,0,21.64,0.68,32,1.98c47.51,6.04,88.52,25.33,122.87,52.56
					c18.39,14.51,34.84,31.33,49.36,49.58c44.17,55.48,70.99,123.46,82.62,193.5C1697.51,2001.54,1698.32,2006.95,1699.04,2012.36z"
					/>
			</g>
		</g>
		<g class="st1">
			<g>
				<path class="st2" d="M1699.04,2012.36c-74.82-14.33-144.73-53.19-196.38-109.26c-36.33-39.39-63.42-87.08-79.15-138.24
					c0.77-7.44,1.85-14.87,3.24-22.22c2.84-14.69,6.99-29.39,14.92-42.05c0-0.05,0.05-0.05,0.05-0.09
					c47.51,6.04,88.52,25.33,122.87,52.56c-3.92,18.75-14.15,37.41-24.88,48.54c35.2,46.83,71.08,93.12,107.68,138.87
					c-42.91-24.75-84.47-51.79-124.49-80.95c12.94,26.95,37.68,46.11,61.98,63.55c22.99,16.5,46.34,32.45,70.09,47.82
					c13.57,8.79,27.36,17.44,41.6,25.24C1697.51,2001.54,1698.32,2006.95,1699.04,2012.36z"/>
			</g>
		</g>
		<g>
			<g>
				<path class="st2" d="M1328.71,2159.83c-0.66,0-1.33-0.03-1.99-0.1c-6.81-0.71-12.73-4.96-15.59-11.18
					c-34.44-75.28-45.59-161.93-31.38-243.99c14.11-81.51,53.34-159.36,110.48-219.23c4.64-4.87,11.47-6.96,18.07-5.54
					c6.58,1.42,11.94,6.17,14.16,12.52c51.67,148.04,21.7,324.17-78.2,459.67C1340.6,2156.95,1334.81,2159.83,1328.71,2159.83z
					 M1395.81,1737.72c-39.77,50.1-67.1,110.57-77.98,173.43c-10.87,62.81-5.38,128.56,15.35,188.58
					C1402.9,1989.34,1425.97,1855.93,1395.81,1737.72z"/>
			</g>
		</g>
		<g>
			<g>
				<path class="st2" d="M1699.05,2031.69c-1.21,0-2.42-0.11-3.63-0.34c-78.94-15.1-152.44-55.99-206.96-115.13
					c-54.47-59.09-89.26-135.67-97.94-215.63c-0.6-5.46,1.16-10.91,4.82-14.99c3.67-4.09,8.9-6.42,14.38-6.42
					c108.06,0,178.92,60.59,219.34,111.42c47.1,59.18,77.93,134.99,89.15,219.21c0.82,6.16-1.37,12.33-5.88,16.6
					C1708.71,2029.83,1703.94,2031.69,1699.05,2031.69z M1432.16,1718.87c11.32,63.57,40.94,123.65,84.72,171.14
					c42.58,46.2,98.08,79.99,158.45,96.92c-12.8-66.02-38.99-125.13-76.51-172.28C1566.6,1774.14,1512.37,1726.5,1432.16,1718.87z"
					/>
			</g>
		</g>
		<g>
			<g>
				<path class="st3" d="M1706.07,1159.22c3.83,75.59-5.18,334.49-242.54,452.13c-376.77,186.69-649.82-97.36-649.82-97.36
					s-187.46,11.76-248.22-111.92c-4.24-8.61-7.53-16.99-10.01-25.2c-4.69-15.37-6.58-29.93-6.36-43.63
					c0.95-74.1,61.93-122.24,61.93-122.96c0-0.04,0.04-0.04,0.09-0.04c1.31-0.86,2.03-1.26,2.03-1.26l-0.05-0.32l-11.72-54.99
					L591,1104.68l-25.51-106.01l-98.76-410.53l1019.83-271.07l105.34,414.99l10.37,40.88l13.75,45.3l31.69,104.3
					c0,0,7.03-0.54,17.49,0.09c26.46,1.58,74.78,10.5,87.35,53.82c1.22,4.19,2.3,8.34,3.15,12.4c2.43,10.82,3.79,21.23,4.28,31.24
					C1764.35,1105.71,1706.07,1159.22,1706.07,1159.22z"/>
			</g>
		</g>
		<g class="st1">
			<g>
				<path class="st2" d="M1616.01,818.24c-435.68-13.75-882.76,250.56-1014.6,335.43L591,1104.68l-25.51-106.01l-98.76-410.53
					l1019.83-271.07l105.34,414.99l10.37,40.88L1616.01,818.24z"/>
			</g>
		</g>
		<g>
			<g>
				<path class="st2" d="M1205.55,1694.2c-218.67,0-367.48-130-399.52-160.65c-1.61,0.02-3.42,0.04-5.41,0.04
					c-45.05,0-196.4-8.87-252.48-123.02c-50.27-102.31,15.29-181.2,43.76-208.8l-19.76-92.84L447.95,592.64
					c-2.45-10.2,3.68-20.5,13.82-23.19l1019.82-271.07c4.99-1.33,10.31-0.6,14.76,2.01c4.45,2.61,7.67,6.9,8.94,11.91l115.59,455.44
					L1662,903.1c1.45,0.06,2.9,0.13,4.35,0.21c55.02,3.28,93.2,27.96,104.75,67.72c29.61,102.27-25.58,174.07-45.39,195.7
					c2.13,72.08-7.4,339.88-253.6,461.9C1384.31,1672.14,1294.63,1694.2,1205.55,1694.2z M813.69,1494.64
					c5.24,0,10.3,2.13,13.95,5.93c1.48,1.54,152.22,154.98,377.91,154.98c83.07,0,166.98-20.71,249.39-61.55
					c235.66-116.8,234.45-381.88,231.82-433.84c-0.29-5.75,1.99-11.32,6.23-15.21c2.79-2.6,69.15-65.84,40.98-163.16
					c-9.18-31.64-47.76-38.58-69.94-39.9c-8.4-0.51-14.38-0.15-14.91-0.11c-8.99,0.7-17.29-5.02-19.92-13.65l-45.43-149.6
					c-0.09-0.29-0.17-0.58-0.24-0.87l-110.89-436.92l-982.7,261.2l119.85,498.19c0.04,0.17,0.08,0.33,0.11,0.5l22.13,103.98
					c0.07,0.35,0.14,0.71,0.2,1.06c1.22,7.84-2.44,15.91-9.24,19.93c-0.12,0.11-0.24,0.22-0.35,0.32
					c-25.39,23.08-80.08,85.61-39.8,167.6c46.23,94.1,178.38,101.41,217.79,101.41c7.46,0,11.85-0.26,11.89-0.26
					C812.91,1494.65,813.3,1494.64,813.69,1494.64z"/>
			</g>
		</g>
		<g>
			<g>
				<path class="st2" d="M608.58,1231.61c-2.05,0-4.11-0.32-6.11-0.99c-1.32-0.44-2.95-1.2-4.15-1.91c-5.76-3.43-9.33-9.6-9.43-16.3
					c-0.1-6.7,3.27-12.98,8.92-16.58l2.75-1.79c8.67-5.6,20.21-3.41,26.21,4.99c6,8.39,4.35,20.02-3.75,26.41
					c-0.71,0.56-1.39,1.13-2.07,1.69C617.44,1230.07,613.04,1231.61,608.58,1231.61z"/>
			</g>
		</g>
		<g>
			<g>
				<path class="st5" d="M818.71,1285.22c-45.25-60.17-133.96-131.16-205.58-76.58L591,1104.66
					c46.56-32.99,123.05-83.75,220.45-135.85c2.34,6.31,4.28,12.76,5.86,19.25c0.41,1.62,0.77,3.2,1.17,4.82c0,0,0,0.05,0,0.09
					c1.44,6.4,2.52,12.89,3.34,19.43c0,0.14,0,0.27,0.05,0.41c0.41,3.34,0.72,6.67,1.04,10.05c0.14,1.71,0.27,3.38,0.36,5.09
					c0.23,3.38,0.36,6.76,0.5,10.19c0.86,27.77-1.94,56.39-5.14,85.14c-1.17,10.77-2.43,21.59-3.61,32.41
					C810.28,1200.17,807.54,1244.25,818.71,1285.22z"/>
			</g>
		</g>
		<g>
			<g>
				<path class="st2" d="M818.72,1304.55c-5.92,0-11.7-2.72-15.45-7.71c-30.66-40.78-84.1-88.4-133.75-88.4
					c-16.31,0-30.92,5.1-44.66,15.57c-5.27,4.02-12.23,5.05-18.43,2.75c-6.21-2.3-10.81-7.62-12.19-14.1l-22.13-103.98
					c-1.61-7.55,1.43-15.33,7.73-19.79c47.53-33.68,124.72-84.81,222.51-137.12c4.92-2.63,10.74-3.01,15.96-1.03
					c5.22,1.98,9.33,6.11,11.27,11.34c2.53,6.81,4.73,14.02,6.52,21.41l1.14,4.7c0.11,0.44,0.21,0.89,0.29,1.34
					c1.43,6.46,2.59,13.35,3.48,20.48c0.02,0.17,0.04,0.34,0.06,0.51c0.42,3.49,0.76,6.98,1.09,10.52l0.08,1.01
					c0.13,1.64,0.25,3.25,0.33,4.9c0.21,3.13,0.36,6.59,0.5,10.08c0.92,29.92-2.08,60.04-5.23,88.37
					c-0.57,5.21-1.16,10.47-1.75,15.74c-0.62,5.53-1.25,11.07-1.85,16.61c-4.04,38.01-7.48,81.74,2.65,120.59
					c0.82,2.13,1.26,4.45,1.26,6.87c0,10.58-8.5,19.17-19.04,19.32C818.97,1304.54,818.84,1304.55,818.72,1304.55z M669.51,1169.79
					c43.69,0,87.03,25.13,122.13,57.08c-0.5-25.34,1.72-50.28,4.16-73.24c0.61-5.63,1.24-11.23,1.87-16.81
					c0.59-5.22,1.18-10.44,1.74-15.64c3-27,5.86-55.57,5.03-82.46c-0.13-3.28-0.25-6.37-0.46-9.47c-0.09-1.63-0.19-2.91-0.29-4.2
					l-0.06-0.71c-0.27-2.88-0.57-6.04-0.96-9.2h0c-0.02-0.17-0.04-0.34-0.06-0.51c-0.77-6.13-1.77-11.99-2.99-17.41c0,0,0,0,0-0.01
					c-79.51,43.7-143.7,85.65-187.08,115.92l13.93,65.42C640.05,1172.72,654.45,1169.79,669.51,1169.79z"/>
			</g>
		</g>
		<g>
			<g>
				<path class="st2" d="M629.73,1328.85c13.58-6.29,28.9-8.62,43.99-8.05c15.12,0.64,30.13,4.28,44.01,10.46
					c13.88,6.16,26.68,14.91,37.21,25.9c10.51,10.94,18.95,24.12,23.06,38.68c1.95,6.92-2.08,14.11-8.99,16.06
					c-4.58,1.29-9.28-0.04-12.5-3.09l-0.56-0.54c-8.85-8.43-17.37-15.93-26.53-22.55c-9.14-6.59-18.71-12.36-28.8-17.22
					c-10.1-4.84-20.68-8.71-31.71-11.55c-11.05-2.93-22.46-4.66-34.77-5.82l-0.6-0.06c-6.42-0.6-11.13-6.3-10.52-12.71
					C623.42,1334.07,626.1,1330.54,629.73,1328.85z"/>
			</g>
		</g>
		<g>
			<g>
				<path class="st0" d="M1601.95,775.64c-37.01-3.11-73.83-4.1-110.38-3.2c-83.02,1.94-164.52,13.34-242.76,31.1
					c-166.28,37.68-317.81,103.85-437.66,167.99c-97.4,52.1-173.89,102.86-220.45,135.85l-25.51-106.01l-74.64-310.28l-24.11-100.24
					l67.47-17.94l73.97-19.65l233.97-62.2l291.22-77.39l353.19-93.89l15.37,60.53l15.23,59.99l74.73,294.46L1601.95,775.64z"/>
			</g>
		</g>
		<g>
			<g>
				<path class="st2" d="M590.69,1126.69c-2.29,0-4.59-0.41-6.79-1.23c-6-2.25-10.49-7.34-12-13.57L447.63,595.34
					c-2.45-10.2,3.68-20.5,13.82-23.19l1019.82-271.07c5-1.33,10.3-0.6,14.76,2.01c4.45,2.61,7.67,6.9,8.94,11.91l115.22,453.97
					c0.76,2.08,1.18,4.31,1.18,6.65c0,10.67-8.65,19.32-19.33,19.32c-0.01,0-0.05,0-0.1,0c-0.54,0-1.08-0.02-1.62-0.07
					c-35.54-2.99-72.18-4.03-108.29-3.14c-262.57,6.11-510.25,110.4-671.79,196.81c-96.04,51.38-171.78,101.54-218.4,134.58
					C598.55,1125.48,594.63,1126.69,590.69,1126.69z M489.63,604.65l113.23,470.68c47.78-32.76,116.03-76.38,199.17-120.86
					c165.25-88.39,418.94-195.08,689.09-201.37c28.38-0.7,57.18-0.25,85.54,1.37l-104.33-411.03L489.63,604.65z"/>
			</g>
		</g>
		<g class="st1">
			<g>
				<path class="st2" d="M1516.85,440.3c-56.16,23.71-118.86,34.39-180.11,38.09c-58.32,78.56-152.62,121.11-244.84,153.97
					c-106.91,38.09-221.85,67.88-333.09,45.52C718.2,738.59,648.88,779.11,576.04,784.7c19.38,69.95,38.76,139.95,58.14,209.91
					c198.14-83.39,403.18-168.12,614.62-191.07c-166.28,37.68-317.81,103.85-437.66,167.99c-97.4,52.1-173.89,102.86-220.45,135.85
					l-25.51-106.01l-74.64-310.28l-24.11-100.24l67.47-17.94c25.6-3.43,50.84-9.6,73.97-19.65l233.97-62.2
					c43.95,2.3,87.85,1.58,131.21-5.72c58.19-9.83,116.06-33.22,160.01-71.67l353.19-93.89l15.37,60.53L1516.85,440.3z"/>
			</g>
		</g>
		<g>
			<g>
				<path class="st5" d="M1650.75,1072.83c-20.53-61.21-35.74-76.87-63.35-106.4c-15.35-16.41-33.62-30.11-47.46-47.82
					c-31.87-40.88-37.86-94.16-49.4-145.41c36.28-0.9,72.79,0.14,109.53,3.2l0.32-2.7l45.43,149.6
					C1645.82,923.3,1663.28,969.26,1650.75,1072.83z"/>
			</g>
		</g>
		<g>
			<g>
				<path class="st2" d="M1650.74,1092.16c-8.22,0-15.65-5.24-18.31-13.18c-18.89-56.31-31.93-70.25-57.91-98.02l-1.24-1.32
					c-5.68-6.07-11.86-11.81-18.4-17.88c-10.29-9.54-20.93-19.41-30.18-31.25c-29.14-37.38-38.44-82.77-47.44-126.66
					c-1.81-8.81-3.61-17.63-5.59-26.4c-1.27-5.64,0.05-11.56,3.61-16.13c3.56-4.56,8.97-7.29,14.76-7.44
					c33.7-0.84,67.91-0.01,101.76,2.49c2.09-1.04,4.4-1.7,6.84-1.92c9.19-0.81,17.55,4.88,20.21,13.63l45.31,149.18
					c2.48,7.12,17.96,56.97,5.75,157.89c-1.08,8.97-8.24,15.99-17.22,16.9C1652.05,1092.13,1651.39,1092.16,1650.74,1092.16z
					 M1514.34,792.22c0.27,1.29,0.53,2.58,0.8,3.87c8.48,41.36,16.48,80.42,40.04,110.65c7.33,9.38,16.4,17.79,25.99,26.69
					c6.75,6.26,13.74,12.74,20.35,19.81l1.23,1.32c12.86,13.75,23.37,24.99,33.08,39.4c-0.89-43.25-8.02-63.64-8.13-63.94
					c-0.11-0.32-0.27-0.78-0.37-1.1l-40.75-134.17C1562.56,793.04,1538.16,792.17,1514.34,792.22z"/>
			</g>
		</g>
		<g>
			<g>
				<path class="st6" d="M1881.49,1738.43L1881.49,1738.43z"/>
			</g>
		</g>
		<g>
			<g>
				<path class="st2" d="M1992.24,1694.9c-3.6,0-7.17-1.11-10.18-3.26c-4.52-3.23-7.23-8.41-7.32-13.96
					c-0.88-54.79-5.39-102.41-9.75-148.45l-0.13-1.4c-0.6-6.3,2.25-12.43,7.45-16.03c79.71-55.28,169.57-96.84,274.72-127.07
					c8.76-2.53,17.98,2.11,21.2,10.63c21.94,58.02,38.54,118.67,49.33,180.26c1.52,8.65-3.62,17.09-12,19.72
					c-105.48,33.08-209.95,66.9-307.91,98.7C1995.88,1694.62,1994.05,1694.9,1992.24,1694.9z M2000.67,1534.8
					c3.52,37.28,6.97,75.81,8.46,118.72c86.91-28.2,178.54-57.8,271.18-86.93c-9.37-48.89-22.52-97.07-39.21-143.61
					C2150.01,1450.58,2071.12,1487.28,2000.67,1534.8z"/>
			</g>
		</g>
		<g>
			<g>
				<path class="st2" d="M2010.28,1712.86c1.87,11.35,1.84,22.7,1.55,34.05c-0.36,11.35-1.78,22.71-3.21,34.06
					c-1.44,11.35-3.24,22.71-5.32,34.06c-2.2,11.35-4.57,22.71-7.89,34.06c-0.41,1.38-1.85,2.17-3.23,1.77
					c-0.88-0.26-1.52-0.95-1.77-1.77c-3.34-11.35-5.73-22.7-7.96-34.05c-2.1-11.35-3.93-22.7-5.39-34.05
					c-1.45-11.35-2.89-22.7-3.27-34.05c-0.31-11.35-0.36-22.7,1.48-34.06c1.57-9.67,10.68-16.23,20.35-14.66
					C2003.33,1699.48,2009.07,1705.56,2010.28,1712.86z"/>
			</g>
		</g>
		<g>
			<g>
				<path class="st2" d="M1835.06,2049.5c-9.86-21.55-18.58-43.49-27.33-65.34l-25.64-65.6c-8.5-21.86-17.7-43.33-26.25-65.3
					c-8.67-21.92-17.6-43.84-25.38-66.91c17.4,17.04,32.24,36.1,45.9,55.94c13.77,19.79,25.43,40.85,36.72,62.01
					c11.2,21.22,21.48,42.82,31.17,64.58c9.53,21.83,18.63,43.75,26.61,66.07c3.6,10.06-1.64,21.13-11.7,24.72
					C1849.66,2063.07,1839.21,2058.5,1835.06,2049.5z"/>
			</g>
		</g>
		<g>
			<g>
				
					<ellipse transform="matrix(0.0453 -0.999 0.999 0.0453 -633.6025 3496.4526)" class="st2" cx="1512.52" cy="2079.72" rx="37.5" ry="37.5"/>
			</g>
		</g>
		<g>
			<g>
				<ellipse class="st2" cx="1532.31" cy="2281.88" rx="32.59" ry="33.31"/>
			</g>
		</g>
		<g>
			<g>
				<ellipse class="st2" cx="1536.68" cy="2455" rx="24.16" ry="24.7"/>
			</g>
		</g>
		<g>
			<g>
				<ellipse class="st2" cx="1536.68" cy="2577.38" rx="21.95" ry="22.45"/>
			</g>
		</g>
		<g>
			<g>
				<circle class="st2" cx="2186.55" cy="1533.53" r="22.54"/>
			</g>
		</g>
		<g>
			<g>
				<path class="st0" d="M1501.62,380.31c-25.96,11.22-54.67,19.52-85.28,24.11c-40.25,5.99-79.24,4.91-114.53-2.12
					c-65.54,70-169.11,128.59-292.66,157.8c-95.33,22.54-187.86,24.11-266.47,8.43c-37.32,43.95-92.49,81.36-159.06,103.58
					c-31.42,10.46-62.79,16.68-93.08,18.98c-112.23,8.65-209.59-36.24-236.9-118.05c-11-32.99-9.29-68.02,2.88-102
					c26.23-73.15,100.92-141.67,201.66-175.24c26.32-8.79,52.65-14.56,78.29-17.58c47.37-104.3,179.48-199.9,349.18-240.06
					c137.07-32.45,268.5-21.5,360.9,21.91c14.29,6.67,27.67,14.15,39.98,22.4c21.68-8.83,45.25-15.6,70.09-19.88
					c2.79-0.54,5.59-0.99,8.38-1.4c127.74-19.16,242.85,33.53,267.42,119.13c1.49,5.14,2.61,10.41,3.43,15.78
					C1646.84,269.47,1590.46,341.9,1501.62,380.31z"/>
			</g>
		</g>
		<g class="st1">
			<g>
				<path class="st2" d="M1356.62,62.59c-55.49,23.62-106.1,58.87-146.98,103.31c4.6-37.37,17.4-73.6,36.91-105.83
					c14.29,6.67,27.67,14.15,39.98,22.4C1308.21,73.63,1331.78,66.87,1356.62,62.59z"/>
			</g>
		</g>
		<g class="st1">
			<g>
				<path class="st2" d="M1501.62,380.31c-25.96,11.22-54.67,19.52-85.28,24.11c-40.25,5.99-79.24,4.91-114.53-2.12
					c-65.54,70-169.11,128.59-292.66,157.8c-95.33,22.54-187.86,24.11-266.47,8.43c-37.32,43.95-92.49,81.36-159.06,103.58
					c-31.42,10.46-62.79,16.68-93.08,18.98c-112.23,8.65-209.59-36.24-236.9-118.05c-11-32.99-9.29-68.02,2.88-102
					c13.25,25.74,29.12,47.24,53.82,63.33c52.6,34.3,117.91,43.81,180.7,41.96c14.2-0.41,28.58-1.49,42.86-3.43
					c25.6-3.43,50.84-9.6,73.97-19.65c22.09-9.65,42.23-22.85,58.87-40.66c11.09-11.85,21.27-26.14,36.78-30.83
					c9.24-2.79,19.16-1.76,28.76-0.72c36.37,4.06,72.97,8.07,109.57,10.01c43.95,2.3,87.85,1.58,131.21-5.72
					c58.19-9.83,116.06-33.22,160.01-71.67c16.05-13.97,30.24-30.02,41.92-48.09c6.72-10.32,13.39-22.04,24.93-26.41
					c9.01-3.43,19.07-1.53,28.58,0.05c149.91,24.93,310.01-40.34,403.95-158.88c1.49,5.14,2.61,10.41,3.43,15.78
					C1646.84,269.47,1590.46,341.9,1501.62,380.31z"/>
			</g>
		</g>
		<g>
			<g>
				<path class="st2" d="M463.41,711.47c-111.74,0-201.28-51.94-228.11-132.34c-18.81-56.38-5.78-119.14,36.7-176.71
					c40.98-55.54,104.92-99.92,180.06-124.98c23.46-7.83,47.46-13.55,71.5-17.04C578.71,150.6,714.47,58.79,881.2,19.33
					C935.4,6.5,989.77,0,1042.79,0c95.67,0,182.49,21.55,245.9,60.86c23.2-8.65,47.85-14.96,73.44-18.8
					c18.32-2.74,36.82-4.14,54.98-4.14c124.34,0,224.37,65.31,237.84,155.29c7.83,52.26-13.28,105.17-59.44,148.98
					c-44.3,42.05-106.92,70.93-176.31,81.32c-37.5,5.58-75.32,5.45-110.64-0.37c-71.2,72.36-175.47,127.49-294.97,155.74
					c-54.21,12.82-108.57,19.31-161.58,19.31c-35.34,0-69.64-2.92-102.13-8.67C709.43,633.69,653,669.3,589.73,690.42
					C547.8,704.39,505.3,711.47,463.41,711.47z M1042.79,38.65c-50.02,0-101.4,6.15-152.7,18.29
					C732.24,94.3,600.34,184.28,554.06,286.19c-2.8,6.16-8.61,10.41-15.34,11.2c-24.97,2.94-50.01,8.56-74.43,16.72
					c-67.66,22.56-124.9,62.07-161.19,111.26c-34.79,47.16-45.85,97.43-31.14,141.54c21.47,64.35,96.62,105.92,191.45,105.92
					c37.73,0,76.12-6.42,114.1-19.07c60.68-20.25,114.11-54.97,150.44-97.75c4.55-5.34,11.63-7.82,18.51-6.44
					c33.23,6.63,68.75,9.99,105.57,9.99c50.01,0,101.39-6.15,152.69-18.28c114.67-27.11,217.82-82.59,283-152.2
					c4.57-4.88,11.33-7.06,17.88-5.74c33.95,6.76,71.08,7.45,107.91,1.96c61.61-9.23,116.81-34.48,155.41-71.13
					c36.75-34.88,53.74-75.8,47.83-115.22c-10.62-70.91-94.57-122.37-199.62-122.37c-16.25,0-32.82,1.25-49.25,3.71
					c-26.06,3.91-50.97,10.66-74.04,20.06c-5.94,2.42-12.7,1.73-18.03-1.83C1218.03,59.91,1135.28,38.65,1042.79,38.65z"/>
			</g>
		</g>
		<g>
			<g>
				<path class="st2" d="M1305.47,422.86c-8.29-3.38-15.76-6.83-23.49-10.52c-7.64-3.68-15.2-7.51-22.65-11.66
					c-7.45-4.15-14.81-8.45-21.97-13.34c-7.15-4.89-14.17-10.1-20.63-16.48c-3.22-3.18-3.25-8.36-0.07-11.57
					c2.72-2.76,6.92-3.17,10.09-1.23l0.29,0.18c6.27,3.84,13.34,6.96,20.55,9.76c7.21,2.81,14.76,5.15,22.33,7.34
					c7.57,2.18,15.28,4.08,23.02,5.82c7.66,1.7,15.68,3.35,23.04,4.51c10.62,1.68,17.86,11.65,16.18,22.27
					c-1.68,10.62-11.65,17.86-22.26,16.18c-1.47-0.23-2.88-0.62-4.2-1.15L1305.47,422.86z"/>
			</g>
		</g>
		<g>
			<g>
				<path class="st2" d="M716.28,569.69c4.33-4.3,8.92-9.36,13.22-14.22c4.34-4.93,8.58-9.97,12.59-15.12
					c4.01-5.15,7.92-10.39,11.38-15.76c3.46-5.36,6.67-10.86,8.98-16.4l0.17-0.39c1.75-4.17,6.55-6.14,10.73-4.39
					c3.46,1.45,5.4,5,4.97,8.54c-0.93,7.66-2.82,14.8-4.96,21.78c-2.15,6.99-4.73,13.68-7.44,20.31
					c-2.72,6.63-5.66,13.11-8.75,19.53c-3.15,6.48-6.21,12.63-9.93,19.25l-0.16,0.29c-5.29,9.4-17.19,12.74-26.6,7.45
					c-9.4-5.29-12.74-17.19-7.45-26.6C713.91,572.39,715.06,570.91,716.28,569.69z"/>
			</g>
		</g>
		<g>
			<g>
				<path class="st2" d="M534.24,258.9c7.43,1.43,13.93,3.04,20.75,4.76c6.73,1.73,13.41,3.54,20.02,5.5
					c13.24,3.89,26.3,8.2,39.15,12.92c4.23,1.55,6.39,6.23,4.84,10.46c-1.28,3.49-4.7,5.58-8.23,5.32l-0.07,0
					c-13.28-0.97-26.54-1.51-39.75-1.6c-6.6-0.05-13.19,0.03-19.74,0.21c-6.46,0.2-13.27,0.47-19.18,1.02
					c-10.75,0.99-20.26-6.91-21.26-17.66c-1-10.75,6.91-20.26,17.66-21.26c1.85-0.17,3.67-0.08,5.41,0.25L534.24,258.9z"/>
			</g>
		</g>
		<g>
			<g>
				
					<ellipse transform="matrix(0.9954 -0.0957 0.0957 0.9954 -196.8026 76.9802)" class="st0" cx="704.14" cy="2090.21" rx="689.48" ry="217.54"/>
			</g>
		</g>
		<g>
			<g>
				<path class="st2" d="M523.71,2334.13c-307.6,0-513.01-69.19-523.31-176.27c-6.35-66.07,63.57-133.63,196.88-190.22
					c127.29-54.04,299.31-93.6,484.37-111.39c68.81-6.62,137.08-9.97,202.91-9.97c307.61,0,513.03,69.19,523.32,176.27
					c6.35,66.07-63.57,133.63-196.88,190.22c-127.29,54.04-299.31,93.6-484.37,111.39C657.81,2330.78,589.54,2334.13,523.71,2334.13
					z M884.55,1881.28c-64.72,0-131.86,3.3-199.56,9.81c-181.59,17.46-349.94,56.09-474.04,108.77
					c-116.37,49.4-180.41,105.77-175.71,154.66c8.06,83.8,213.49,144.62,488.47,144.62c64.72,0,131.87-3.3,199.57-9.81
					c181.59-17.46,349.94-56.09,474.04-108.77c116.37-49.4,180.42-105.77,175.71-154.66
					C1364.98,1942.1,1159.54,1881.28,884.55,1881.28z"/>
			</g>
		</g>
		<g>
			<g>
				
					<ellipse transform="matrix(0.9954 -0.0957 0.0957 0.9954 -193.9685 76.708)" class="st7" cx="702.71" cy="2060.52" rx="617.35" ry="189.36"/>
			</g>
		</g>
		<g class="st1">
			<g>
				<path class="st2" d="M718.47,2250.51c-339.36,32.59-622.6-25.33-632.65-129.41c-1.53-15.87,3.38-31.91,14.02-47.82
					c10.64,103.89,293.61,161.63,632.6,129.04c287.7-27.68,523.39-111.51,582.39-199.81c0,0.14,0.04,0.27,0.04,0.41
					C1324.89,2107.04,1057.87,2217.87,718.47,2250.51z"/>
			</g>
		</g>
		<g>
			<g>
				
					<ellipse transform="matrix(0.9954 -0.0956 0.0956 0.9954 -190.0926 76.1597)" class="st8" cx="699.76" cy="2021.9" rx="543.44" ry="150.99"/>
			</g>
		</g>
		<g class="st9">
			<g>
				<path class="st0" d="M1236.34,1988.11c-48.54-67.47-276.97-100.65-546.06-74.82c-268.5,25.83-486.07,101.55-521.59,176.91
					c-5.36-7.39-8.52-15.23-9.29-23.48c-7.98-83.02,227.75-173.58,526.5-202.29c298.74-28.67,547.41,15.37,555.39,98.35
					C1242.11,1971.17,1240.4,1979.64,1236.34,1988.11z"/>
			</g>
		</g>
		<g class="st1">
			<g>
				<path class="st2" d="M714.21,2168.35c-298.74,28.67-547.41-15.32-555.39-98.35c-1.35-14.11,4.33-28.49,16.23-42.68
					c46.43,68.38,276.16,102.18,547.01,76.17c247.86-23.84,452.35-90.19,510.23-159.56c4.87,7.03,7.71,14.42,8.43,22.18
					C1248.69,2049.09,1012.95,2139.64,714.21,2168.35z"/>
			</g>
		</g>
		<g>
			<g>
				<path class="st2" d="M535.99,2273.1c-272.21,0-453.84-59.69-462.72-152.07c-5.61-58.3,55.38-115.65,176.35-165.87
					c113.98-47.32,267.95-82.14,433.54-98.06c63.25-6.08,125.92-9.16,186.28-9.16c272.21,0,453.84,59.69,462.72,152.06
					c5.61,58.3-55.38,115.66-176.35,165.87c-113.98,47.32-267.95,82.14-433.54,98.06C659.03,2270.02,596.35,2273.1,535.99,2273.1z
					 M869.44,1877.94c-59.4,0-121.11,3.03-183.41,9.03c-162.7,15.64-313.6,49.7-424.9,95.91
					c-104.5,43.38-162.09,92.69-157.99,135.29c6.96,72.39,189,124.94,432.86,124.94c59.4,0,121.11-3.04,183.41-9.03
					c162.7-15.64,313.6-49.7,424.9-95.91c104.5-43.38,162.09-92.69,157.99-135.3C1295.33,1930.48,1113.29,1877.94,869.44,1877.94z"
					/>
			</g>
		</g>
		<g>
			<g>
				<path class="st2" d="M536.61,2195.97c-184.25,0-384.18-31.7-392.73-120.68c-4.62-48.15,49.94-95.51,157.78-136.93
					c100.68-38.67,236.42-67.69,382.23-81.69c61.06-5.86,121.29-8.84,179.02-8.84c184.25,0,384.18,31.7,392.73,120.68
					c4.62,48.15-49.94,95.5-157.78,136.93c-100.68,38.67-236.42,67.69-382.23,81.69C654.57,2193,594.34,2195.97,536.61,2195.97z
					 M862.91,1877.83c-56.77,0-116.04,2.93-176.15,8.7c-143.18,13.75-276.12,42.1-374.34,79.83
					c-89.9,34.53-141.74,74.18-138.68,106.06c4.46,46.49,130.54,93.55,362.87,93.55c56.77,0,116.04-2.93,176.15-8.7
					c143.18-13.75,276.12-42.1,374.34-79.83c89.9-34.53,141.74-74.18,138.68-106.06C1221.32,1924.9,1095.24,1877.83,862.91,1877.83z
					"/>
			</g>
		</g>
		<g>
			<g>
				<path class="st2" d="M707.62,2183.57c-0.16,0-0.31,0-0.46-0.01c-5.52-0.25-9.79-4.93-9.54-10.44l13.97-307.67
					c0.25-5.52,5.07-9.76,10.44-9.54c5.52,0.25,9.79,4.93,9.54,10.44l-13.97,307.67C717.36,2179.38,712.93,2183.57,707.62,2183.57z"
					/>
			</g>
		</g>
		<g>
			<g>
				<path class="st2" d="M369.79,2176.04c-3.78,0-7.4-2.15-9.08-5.81c-2.32-5.01-0.13-10.96,4.89-13.27l638.01-294.55
					c5-2.3,10.96-0.13,13.27,4.89c2.32,5.01,0.13,10.96-4.89,13.27l-638.01,294.55C372.62,2175.74,371.19,2176.04,369.79,2176.04z"
					/>
			</g>
		</g>
		<g>
			<g>
				<path class="st2" d="M1140.46,2080.76c-0.56,0-1.13-0.05-1.7-0.15l-793.2-136.48c-5.44-0.94-9.1-6.11-8.16-11.55
					c0.93-5.44,6.09-9.1,11.55-8.16l793.2,136.48c5.44,0.94,9.1,6.11,8.16,11.55C1149.47,2077.32,1145.24,2080.76,1140.46,2080.76z"
					/>
			</g>
		</g>
		<g>
			<g>
				<path class="st2" d="M162.17,2061.19c-5.13,0-9.5-3.92-9.95-9.13c-0.48-5.5,3.59-10.35,9.09-10.83l1079.18-94.16
					c5.49-0.47,10.35,3.6,10.83,9.09c0.48,5.5-3.59,10.35-9.09,10.83l-1079.18,94.16C162.75,2061.18,162.46,2061.19,162.17,2061.19z
					"/>
			</g>
		</g>
		<g>
			<g>
				<path class="st2" d="M798,1525.22l-26.57-54.27c-2.4-4.91-0.37-10.85,4.54-13.25c3.94-1.93,8.53-1,11.44,1.97l0.21,0.21
					l41.81,42.84l0.2,0.21c7.56,7.74,7.41,20.15-0.34,27.71c-7.74,7.56-20.15,7.41-27.71-0.34
					C800.1,1528.78,798.89,1527.01,798,1525.22z"/>
			</g>
		</g>
		<g>
			<g>
				<path class="st2" d="M511.99,1326.3l0.32,2.61C511.45,1327.16,511.36,1326.21,511.99,1326.3z"/>
			</g>
		</g>
		<g class="st1">
			<g>
				<path class="st2" d="M1714.4,1156.26c3.83,75.59-5.18,334.49-242.54,452.13c-376.77,186.69-649.82-97.36-649.82-97.36
					s-187.46,11.76-248.22-111.92c-4.24-8.61-7.53-16.99-10.01-25.2c44.53,37.95,121.47,81.04,224.01,66.3
					c0,0,300.14,251.15,611.28,133.33c311.14-117.87,276.34-457.13,276.34-457.13s55.12-60.44,88.57-130.53
					c2.43,10.82,3.79,21.23,4.28,31.24C1772.68,1102.76,1714.4,1156.26,1714.4,1156.26z"/>
			</g>
		</g>
		<g class="st1">
			<g>
				<path class="st2" d="M2314.38,1773.25c-2.3,68.47-13.84,140.18-56.07,194.08c-44.85,57.24-118.59,85.86-191.02,91.9
					c-72.48,5.99-144.96-7.93-216.31-21.77c58.78,158.21,86.99,330.25,76.67,499.95c-1.53,24.93-14.11,47.87-33.99,63.01
					c-247.81,188.86-594.33,263.18-903.63,183.45c-36.73-9.47-59.77-45.88-51.92-82.98c29.84-140.99,38.31-280.31,25.33-416.79
					c16.5-12.67,339.85-153.23,355.53-166.88c-25.97,337.78-284.82,412.8-264.62,448.59c26.55,46.97,263.14,132.03,482.33,59.59
					c393.84-130.16,275.26-623.23,258.45-724.82c66.3,20.06,135.17,40.39,203.82,30.88c120.39-16.72,212.2-124.18,247.81-240.38
					c23.08-75.32,27-154.51,24.52-232.8c12.08,39.08,21.86,79.33,29.03,120.39C2311.54,1642.4,2316.54,1707.94,2314.38,1773.25z"/>
			</g>
		</g>
		<g class="st1">
			<g>
				<path class="st2" d="M2208,1431.55c-65.81,15.19-128.77,43.04-194.08,79.46c-16.09-50.62-80.64-41.92-122.82-48.05
					c-64.59-11.58-101.05-59.68-109.08-112.32c19.29,42.95,62.25,74.96,109.26,79.87c52.06,5.45,106.15-22.63,131.66-68.42
					c2.93-5.23,5.86-11.04,11.31-13.57c4.73-2.25,10.32-1.44,15.6-1.22c29.21,1.26,56.39-18.12,71.71-43.04
					c15.32-24.93,20.69-54.58,23.71-83.7c2.97-28.62,3.97-57.47,2.97-86.22C2193.13,1242.74,2214.09,1375.21,2208,1431.55z"/>
			</g>
		</g>
		<g class="st1">
			<g>
				<path class="st2" d="M2065.93,1074.39c-11.85,6.17-23.75,12.3-35.61,18.48c-9.65-15.64-23.62-27.99-36.15-41.42
					c-7.03-7.53-13.66-15.46-19.79-23.71c16.77,15.51,34.89,34.17,53.95,56.25c-19.88-36.91-93.26-121.29-56.07-145.99
					c0.9-0.59,1.89-1.04,3.02-1.31c2.48,5.05,5.27,9.96,8.07,14.74C2008.38,994.02,2035.96,1035.13,2065.93,1074.39z"/>
			</g>
		</g>
		<g class="st1">
			<g>
				<path class="st2" d="M2004.86,1109.32c-13.7,1.4-26.73,8.2-35.74,18.57c-15.55-9.06-26.41-24.47-39.62-36.69
					c-0.68-0.59-1.31-1.22-1.98-1.76c-64-71.49-75.63-114.08-54.04-119.53c21.86,35.11,48.63,67.2,79.33,94.92
					c7.26,6.58,14.74,12.89,22.22,19.2C1984.94,1092.46,1994.9,1100.89,2004.86,1109.32z"/>
			</g>
		</g>
		<g class="st1">
			<g>
				<path class="st2" d="M1929.72,1174.05c-12.4,9.51-27.04,15.6-42.37,18.34c-36.15-44.13-131.43-139.59-87.58-159.96
					c1.44-0.68,2.97-1.22,4.6-1.53c4.64,8.16,9.06,16.41,14.6,24.07c20.87,28.8,46.06,54.13,71.17,79.33
					C1903.35,1147.54,1916.52,1160.79,1929.72,1174.05z"/>
			</g>
		</g>
		<g class="st1">
			<g>
				<path class="st2" d="M2030.49,1306.24c-33.22-18.53-77.3-15.37-107.5,7.75c-4.46,3.38-8.61,7.3-12.8,11.09
					c-0.99-6.22-3.02-11.99-5.86-17.13c-0.05-4.51-0.86-9.01-2.97-12.98c-6.76-12.58-24.61-15.55-37.68-9.78
					c-2.25,0.99-4.42,2.21-6.49,3.61c-9.69,6.36-16.95,16.27-23.17,26.28c-0.68,1.08-1.4,2.21-2.16,3.29
					c-1.67,2.48-3.61,4.69-6.27,5.95c-3.06,1.49-6.63,1.44-10.05,1.49c-12.03,0.18-24.02,2.16-35.52,5.72
					c-0.23-9.92,0.5-19.83,2.25-29.57c9.47-11.13,20.42-21.14,32.09-29.93c9.96-7.57,20.78-14.51,32.95-17.62
					c24.2-6.13,49.31,3.79,72.34,13.57c15.41-20.82,44.94-29.97,69.46-21.5C2013.63,1254.91,2031.21,1280.28,2030.49,1306.24z"/>
			</g>
		</g>
		<g>
			<g>
				<ellipse class="st10" cx="799.08" cy="2060.52" rx="35.5" ry="14.71"/>
			</g>
		</g>
		<g>
			<g>
				<ellipse class="st10" cx="894.7" cy="2090.21" rx="29.51" ry="12.22"/>
			</g>
		</g>
		<g>
			<g>
				<ellipse class="st10" cx="355.75" cy="2082.98" rx="29.51" ry="12.22"/>
			</g>
		</g>
		<g>
			<g>
				<ellipse class="st10" cx="454.91" cy="2070.75" rx="23.26" ry="9.64"/>
			</g>
		</g>
		<g>
			<g>
				<ellipse class="st10" cx="402.14" cy="1988.66" rx="23.26" ry="9.64"/>
			</g>
		</g>
		<g>
			<g>
				<ellipse class="st10" cx="643.61" cy="1924.64" rx="23.26" ry="9.64"/>
			</g>
		</g>
		<g>
			<g>
				<ellipse class="st10" cx="585.92" cy="2126.89" rx="34.43" ry="14.26"/>
			</g>
		</g>
		<g>
			<g>
				<ellipse class="st10" cx="656.16" cy="2082.98" rx="23.26" ry="9.64"/>
			</g>
		</g>
		<g>
			<g>
				<ellipse class="st10" cx="767.11" cy="1940.03" rx="23.26" ry="9.64"/>
			</g>
		</g>
		<g>
			<g>
				<ellipse class="st10" cx="822.34" cy="1905.36" rx="29.62" ry="12.27"/>
			</g>
		</g>
		<g>
			<g>
				<ellipse class="st10" cx="948.16" cy="1943.93" rx="23.96" ry="9.93"/>
			</g>
		</g>
		<g>
			<g>
				<ellipse class="st10" cx="1081.81" cy="2010.1" rx="38.42" ry="15.92"/>
			</g>
		</g>
		<g>
			<g>
				<ellipse class="st10" cx="1047.02" cy="1930.4" rx="29.98" ry="12.42"/>
			</g>
		</g>
		<g>
			<g>
				<path class="st2" d="M799.08,2080.22c-20.13,0-40.5-6.77-40.5-19.7s20.37-19.7,40.5-19.7c20.12,0,40.49,6.77,40.49,19.7
					S819.2,2080.22,799.08,2080.22z M799.08,2050.82c-18.92,0-30.5,6.28-30.5,9.7s11.58,9.7,30.5,9.7c18.92,0,30.49-6.28,30.49-9.7
					S818,2050.82,799.08,2050.82z"/>
			</g>
		</g>
		<g>
			<g>
				<path class="st2" d="M894.7,2107.43c-17.15,0-34.51-5.92-34.51-17.22s17.36-17.22,34.51-17.22c17.15,0,34.51,5.92,34.51,17.22
					S911.85,2107.43,894.7,2107.43z M894.7,2082.98c-16.08,0-24.51,5.37-24.51,7.22s8.43,7.22,24.51,7.22s24.51-5.37,24.51-7.22
					S910.78,2082.98,894.7,2082.98z"/>
			</g>
		</g>
		<g>
			<g>
				<path class="st2" d="M355.75,2100.2c-17.15,0-34.51-5.92-34.51-17.22s17.36-17.22,34.51-17.22c17.15,0,34.51,5.92,34.51,17.22
					S372.9,2100.2,355.75,2100.2z M355.75,2075.75c-16.08,0-24.51,5.37-24.51,7.22s8.43,7.22,24.51,7.22
					c16.08,0,24.51-5.37,24.51-7.22S371.83,2075.75,355.75,2075.75z"/>
			</g>
		</g>
		<g>
			<g>
				<path class="st2" d="M454.91,2085.39c-13.61,0-28.26-4.58-28.26-14.64s14.65-14.64,28.26-14.64c13.61,0,28.27,4.58,28.27,14.64
					S468.52,2085.39,454.91,2085.39z M436.78,2070.75c1.25,1.53,7.52,4.64,18.13,4.64c10.62,0,16.89-3.1,18.13-4.64
					c-1.25-1.53-7.52-4.64-18.13-4.64C444.3,2066.12,438.02,2069.22,436.78,2070.75z"/>
			</g>
		</g>
		<g>
			<g>
				<path class="st2" d="M402.14,2003.29c-13.61,0-28.26-4.58-28.26-14.64c0-10.06,14.65-14.64,28.26-14.64
					c13.61,0,28.26,4.58,28.26,14.64C430.4,1998.71,415.75,2003.29,402.14,2003.29z M384.01,1988.66c1.25,1.53,7.52,4.64,18.13,4.64
					c10.62,0,16.88-3.1,18.13-4.64c-1.25-1.54-7.51-4.64-18.13-4.64C391.53,1984.02,385.26,1987.12,384.01,1988.66z"/>
			</g>
		</g>
		<g>
			<g>
				<path class="st2" d="M643.61,1939.27c-13.61,0-28.26-4.58-28.26-14.64c0-10.06,14.65-14.64,28.26-14.64s28.26,4.58,28.26,14.64
					C671.87,1934.69,657.22,1939.27,643.61,1939.27z M625.48,1924.64c1.25,1.53,7.52,4.64,18.13,4.64c10.61,0,16.88-3.1,18.13-4.64
					c-1.25-1.54-7.52-4.64-18.13-4.64C633,1920,626.72,1923.1,625.48,1924.64z"/>
			</g>
		</g>
		<g>
			<g>
				<path class="st2" d="M585.92,2146.15c-19.59,0-39.43-6.62-39.43-19.26s19.83-19.26,39.43-19.26c19.59,0,39.43,6.62,39.43,19.26
					S605.51,2146.15,585.92,2146.15z M585.92,2117.63c-19.41,0-29.43,6.49-29.43,9.26c0,2.69,10.31,9.26,29.43,9.26
					c19.12,0,29.43-6.57,29.43-9.26C615.34,2124.12,605.33,2117.63,585.92,2117.63z"/>
			</g>
		</g>
		<g>
			<g>
				<path class="st2" d="M656.16,2097.61c-13.61,0-28.26-4.58-28.26-14.64s14.65-14.64,28.26-14.64s28.26,4.58,28.26,14.64
					S669.78,2097.61,656.16,2097.61z M638.03,2082.98c1.25,1.53,7.52,4.64,18.13,4.64c10.61,0,16.88-3.1,18.13-4.64
					c-1.25-1.53-7.52-4.64-18.13-4.64C645.55,2078.34,639.28,2081.45,638.03,2082.98z"/>
			</g>
		</g>
		<g>
			<g>
				<path class="st2" d="M767.11,1954.67c-13.61,0-28.26-4.58-28.26-14.64s14.65-14.64,28.26-14.64c13.61,0,28.26,4.58,28.26,14.64
					S780.72,1954.67,767.11,1954.67z M748.98,1940.03c1.25,1.53,7.52,4.64,18.13,4.64c10.62,0,16.88-3.1,18.13-4.64
					c-1.25-1.53-7.51-4.64-18.13-4.64C756.5,1935.4,750.22,1938.5,748.98,1940.03z"/>
			</g>
		</g>
		<g>
			<g>
				<path class="st2" d="M822.34,1922.63c-17.2,0-34.62-5.93-34.62-17.27s17.42-17.27,34.62-17.27c17.2,0,34.62,5.93,34.62,17.27
					S839.54,1922.63,822.34,1922.63z M822.34,1898.09c-16.15,0-24.62,5.4-24.62,7.27s8.47,7.27,24.62,7.27
					c16.15,0,24.62-5.4,24.62-7.27S838.49,1898.09,822.34,1898.09z"/>
			</g>
		</g>
		<g>
			<g>
				<path class="st2" d="M948.16,1958.85c-13.95,0-28.96-4.67-28.96-14.92c0-10.26,15.01-14.93,28.96-14.93
					c13.95,0,28.96,4.67,28.96,14.93C977.12,1954.18,962.11,1958.85,948.16,1958.85z M948.16,1939c-11.83,0-18.37,3.68-18.99,5.15
					c0.62,1.02,7.17,4.7,18.99,4.7c11.82,0,18.38-3.68,18.99-5.15C966.54,1942.69,959.99,1939,948.16,1939z"/>
			</g>
		</g>
		<g>
			<g>
				<path class="st2" d="M1081.8,2031.02c-21.58,0-43.42-7.19-43.42-20.92s21.84-20.92,43.42-20.92c21.58,0,43.42,7.19,43.42,20.92
					S1103.38,2031.02,1081.8,2031.02z M1081.8,1999.19c-20.73,0-33.42,7.07-33.42,10.92s12.69,10.92,33.42,10.92
					s33.42-7.07,33.42-10.92C1115.23,2006.4,1103.43,1999.19,1081.8,1999.19z"/>
			</g>
		</g>
		<g>
			<g>
				<path class="st2" d="M1047.02,1947.82c-17.39,0-34.99-5.98-34.99-17.42s17.6-17.42,34.99-17.42s34.99,5.98,34.99,17.42
					S1064.41,1947.82,1047.02,1947.82z M1047.02,1922.97c-16.4,0-24.99,5.52-24.99,7.42c0,1.91,8.59,7.42,24.99,7.42
					c16.4,0,24.99-5.52,24.99-7.42C1072,1928.49,1063.42,1922.97,1047.02,1922.97z"/>
			</g>
		</g>
		<g>
			<g>
				<path class="st4" d="M1419.54,1811.11c-48.54,6.54-92.26-20.69-97.67-60.8c-1.22-9.19-0.36-18.21,2.3-26.82
					c8.97-29.03,38.31-52.69,75.77-57.74c45.66-6.13,87.04,17.58,96.28,53.86c0.59,2.25,1.04,4.6,1.35,6.94
					C1503.02,1766.71,1468.04,1804.57,1419.54,1811.11z"/>
			</g>
		</g>
		<g>
			<g>
				<path class="st2" d="M1405.15,1831.4c-53.21,0-96.29-33.02-102.43-78.53c-6.83-50.63,35.61-98.3,94.61-106.26
					c5.63-0.76,11.34-1.15,16.96-1.15c53.21,0,96.29,33.02,102.43,78.53c6.83,50.63-35.61,98.3-94.61,106.26
					C1416.49,1831.01,1410.78,1831.4,1405.15,1831.4z M1414.3,1684.11c-3.9,0-7.87,0.27-11.8,0.8
					c-37.88,5.11-65.46,33.28-61.47,62.79c3.47,25.68,31.04,45.05,64.13,45.05c3.91,0,7.88-0.27,11.8-0.8
					c37.88-5.11,65.46-33.28,61.47-62.79C1474.96,1703.48,1447.39,1684.11,1414.3,1684.11z"/>
			</g>
		</g>
		<g class="st1">
			<g>
				<path class="st2" d="M1419.54,1811.11c-48.54,6.54-92.26-20.69-97.67-60.8c-1.22-9.19-0.36-18.21,2.3-26.82
					c3.65,0.23,7.08,0.32,10.01,0.14c16.05-0.99,32.05-2.84,47.91-5.45c11.72-1.98,37.73-2.84,47.06-10.41
					c-17.8,14.47-37.32,26.95-57.92,37.01c42.91,3.29,86.63-5.63,124.99-25.15c0.59,2.25,1.04,4.6,1.35,6.94
					C1503.02,1766.71,1468.04,1804.57,1419.54,1811.11z"/>
			</g>
		</g>
		<g>
			<g>
				<g>
					<path class="st2" d="M1353.1,1291.55c0,0,0.33,0.59,0.88,1.75c6.41,12.82,44.38,93.8,8.34,138.69
						c-7.12,8.87-17.17,16.37-30.9,21.61c-67.41,25.76-105.83-26.07-125.64-71.11c-12.97-29.47-18.02-56.03-18.02-56.03
						c75.57,12.7,130.59-8.97,166.22-33.15c33.91-22.96,50.3-48.1,50.3-48.1L1353.1,1291.55z"/>
				</g>
			</g>
			<g>
				<g>
					<path class="st11" d="M1361.88,1429.39c0.18,0.88,0.36,1.7,0.45,2.6c-7.12,8.87-17.17,16.37-30.9,21.61
						c-67.41,25.76-105.83-26.07-125.64-71.11c11.72-8.26,25.55-14.43,40.87-17.67C1300.39,1353.48,1351.96,1382.42,1361.88,1429.39
						z"/>
				</g>
			</g>
			<g>
				<g>
					<path class="st2" d="M1349.29,1275.22c2.81-4.36,6.53-7.3,10.45-10.11c3.96-2.74,8.37-5.02,12.9-7.35
						c4.49-2.36,9.19-4.65,14.04-7c4.91-2.28,9.96-4.71,15.51-6.93l0.26-0.1c1.47-0.59,3.14,0.12,3.73,1.6
						c0.16,0.4,0.22,0.83,0.2,1.24c-0.38,6.47-2,12.23-3.98,17.89c-2.08,5.57-4.61,10.94-7.66,15.93
						c-3.06,4.96-6.35,9.87-10.51,13.83c-4.1,4.02-8.75,7.47-14.41,9.36c-9.59,3.21-19.97-1.96-23.18-11.55
						c-1.82-5.45-0.94-11.15,1.91-15.64L1349.29,1275.22z"/>
				</g>
			</g>
			<g>
				<g>
					<path class="st2" d="M1297.36,1480.24c-45.2,0-83.96-31.09-109.78-89.75c-13.73-31.18-19.13-59.15-19.36-60.33
						c-1.22-6.39,0.78-12.97,5.32-17.62c4.55-4.65,11.08-6.77,17.5-5.7c57.09,9.61,108.07-0.44,151.51-29.82
						c0.14-0.1,0.28-0.19,0.42-0.29l1.68-1.15c9.01-6.27,21.41-4.04,27.67,4.97c2.66,3.82,3.79,8.24,3.53,12.55
						c12.84,28.62,40.32,103.55,1.96,151.34c-9.79,12.19-23.01,21.52-39.31,27.74C1324.36,1477.58,1310.58,1480.24,1297.36,1480.24z
						 M1214.52,1349.54c2.45,7.55,5.58,16.13,9.45,24.94c37.25,84.67,84.75,66.52,100.36,60.55c9.62-3.67,17.18-8.88,22.49-15.48
						c18.92-23.56,10.06-66.25-1.93-97.52C1313.62,1338.84,1270.08,1353,1214.52,1349.54z"/>
				</g>
			</g>
			<g>
				<g>
					<g>
						<path class="st2" d="M1505.19,1006.42c-4.05,0.77-7.87,0.01-11.44-0.22l-10.44-1.03c-6.73-0.64-13.07-1.15-19.11-1.29
							c-12.09-0.39-22.75,0.72-32.97,3.32c-10.22,2.58-20.38,6.81-31.18,12.69c-10.94,5.73-22.07,13.1-35.75,20.35
							c1.5-15.46,8.04-29.3,17.92-41.31c9.86-11.89,24.08-21.65,40.45-25.66c16.29-4.22,33.81-2.34,48.18,4
							c7.22,3.19,13.79,7.33,19.52,12.3c2.84,2.52,5.52,5.17,7.94,8.05c1.22,1.42,2.37,2.91,3.49,4.4
							C1502.91,1003.57,1503.81,1005.13,1505.19,1006.42z"/>
					</g>
				</g>
				<g>
					<g>
						<path class="st2" d="M1506.62,1085.37c-9.48,5.98-19,12.49-27.55,19.43c-8.62,6.95-16.53,14.42-23.6,22.35
							c-3.65,3.88-6.75,8.15-10.02,12.25c-2.82,4.41-6.07,8.52-8.43,13.16c-5.48,8.86-9.04,18.67-12.48,28.55l-23.93-15.24
							c2.77-2.18,4.71-3.45,7.05-4.89c2.24-1.42,4.52-2.66,6.79-3.92c4.56-2.45,9.28-4.49,14.06-6.34c9.57-3.65,19.6-6.02,29.73-7
							c10.13-0.82,20.33-0.85,30.16,1.18c9.88,1.5,19.24,5.09,27.96,9.24c2.55,1.21,3.63,4.27,2.42,6.81
							c-0.9,1.9-2.82,2.98-4.79,2.92l-0.61-0.02c-4.55-0.16-8.89-0.79-13.26-0.84c-4.39,0.04-8.66-0.19-12.93,0.23
							c-8.5,0.51-16.8,1.82-24.76,4.13c-8,2.08-15.7,5.08-23,8.75c-3.66,1.81-7.18,3.87-10.61,5.97c-1.68,1.1-3.38,2.17-4.94,3.33
							c-1.51,1.06-3.3,2.5-4.13,3.18l-0.25,0.21c-6.28,5.22-15.61,4.36-20.83-1.92c-3.23-3.88-4.1-9.01-2.84-13.53
							c3.59-12.51,7.95-25.08,15.03-36.2c3.08-5.83,7.38-10.83,11.25-16.09c4.42-4.8,8.65-9.77,13.65-13.89
							c9.65-8.58,20.41-15.71,31.84-21.06c11.54-5.26,23.31-9.16,36.19-10.49c2.83-0.29,5.35,1.76,5.65,4.59
							c0.21,2.01-0.77,3.87-2.37,4.88L1506.62,1085.37z"/>
					</g>
				</g>
			</g>
			<g>
				<g>
					<path class="st2" d="M1084.13,1116.3c-4.05,0.77-7.87,0.01-11.44-0.21l-10.44-1.03c-6.73-0.64-13.07-1.15-19.11-1.29
						c-12.09-0.39-22.75,0.72-32.97,3.32c-10.22,2.58-20.38,6.81-31.18,12.69c-10.94,5.73-22.07,13.1-35.75,20.35
						c1.5-15.46,8.03-29.3,17.92-41.32c9.86-11.89,24.08-21.65,40.45-25.66c16.29-4.22,33.81-2.34,48.18,4
						c7.22,3.19,13.79,7.33,19.52,12.3c2.84,2.52,5.52,5.17,7.94,8.05c1.22,1.42,2.37,2.91,3.49,4.4
						C1081.86,1113.45,1082.76,1115.01,1084.13,1116.3z"/>
				</g>
			</g>
			<g>
				<g>
					
						<ellipse transform="matrix(0.997 -0.0771 0.0771 0.997 -93.29 84.7851)" class="st2" cx="1051.53" cy="1250.73" rx="73.09" ry="95.98"/>
				</g>
			</g>
			<g>
				<g>
					
						<ellipse transform="matrix(0.997 -0.0771 0.0771 0.997 -91.7778 85.9997)" class="st0" cx="1068" cy="1231.73" rx="21.35" ry="28.03"/>
				</g>
			</g>
		</g>
	</g>
</g>
</svg>
